<mxfile host="app.diagrams.net" modified="2022-02-11T03:29:19.949Z" agent="5.0 (X11; Linux x86_64) AppleWebKit/537.36 (KHTML, like Gecko) Chrome/97.0.4692.71 Safari/537.36" etag="AFls7_PmKBdXXjnJ77Zw" version="16.2.7" type="github">
  <diagram id="Vof5An9lQpi0S1Zq8uU-" name="Page-1">
    <mxGraphModel dx="1350" dy="805" grid="1" gridSize="10" guides="1" tooltips="1" connect="1" arrows="1" fold="1" page="1" pageScale="1" pageWidth="850" pageHeight="1100" math="0" shadow="0">
      <root>
        <mxCell id="0" />
        <mxCell id="1" parent="0" />
        <mxCell id="m09n2iZaMvHmgW29_Yog-1" value="" style="endArrow=classic;html=1;rounded=0;" edge="1" parent="1">
          <mxGeometry width="50" height="50" relative="1" as="geometry">
            <mxPoint x="400" y="440" as="sourcePoint" />
            <mxPoint x="400" y="360" as="targetPoint" />
          </mxGeometry>
        </mxCell>
        <mxCell id="m09n2iZaMvHmgW29_Yog-2" value="" style="endArrow=classic;html=1;rounded=0;" edge="1" parent="1">
          <mxGeometry width="50" height="50" relative="1" as="geometry">
            <mxPoint x="400" y="440" as="sourcePoint" />
            <mxPoint x="480" y="440" as="targetPoint" />
          </mxGeometry>
        </mxCell>
        <mxCell id="m09n2iZaMvHmgW29_Yog-4" value="" style="endArrow=classic;html=1;rounded=0;" edge="1" parent="1">
          <mxGeometry width="50" height="50" relative="1" as="geometry">
            <mxPoint x="400" y="440" as="sourcePoint" />
            <mxPoint x="350" y="490" as="targetPoint" />
          </mxGeometry>
        </mxCell>
        <mxCell id="m09n2iZaMvHmgW29_Yog-5" value="&lt;font style=&quot;font-size: 14px&quot;&gt;X&lt;/font&gt;" style="text;html=1;align=center;verticalAlign=middle;resizable=0;points=[];autosize=1;strokeColor=none;fillColor=none;" vertex="1" parent="1">
          <mxGeometry x="405" y="360" width="20" height="20" as="geometry" />
        </mxCell>
        <mxCell id="m09n2iZaMvHmgW29_Yog-6" value="&lt;font style=&quot;font-size: 14px&quot;&gt;Z&lt;/font&gt;" style="text;html=1;align=center;verticalAlign=middle;resizable=0;points=[];autosize=1;strokeColor=none;fillColor=none;" vertex="1" parent="1">
          <mxGeometry x="480" y="430" width="20" height="20" as="geometry" />
        </mxCell>
        <mxCell id="m09n2iZaMvHmgW29_Yog-7" value="&lt;font style=&quot;font-size: 14px&quot;&gt;Y&lt;/font&gt;" style="text;html=1;align=center;verticalAlign=middle;resizable=0;points=[];autosize=1;strokeColor=none;fillColor=none;" vertex="1" parent="1">
          <mxGeometry x="360" y="480" width="20" height="20" as="geometry" />
        </mxCell>
        <mxCell id="m09n2iZaMvHmgW29_Yog-8" value="" style="endArrow=classic;html=1;fontSize=14;curved=1;" edge="1" parent="1">
          <mxGeometry width="50" height="50" relative="1" as="geometry">
            <mxPoint x="395" y="420" as="sourcePoint" />
            <mxPoint x="385" y="420" as="targetPoint" />
            <Array as="points">
              <mxPoint x="410" y="420" />
              <mxPoint x="420" y="410" />
              <mxPoint x="405" y="390" />
              <mxPoint x="385" y="399" />
            </Array>
          </mxGeometry>
        </mxCell>
        <mxCell id="m09n2iZaMvHmgW29_Yog-11" value="O" style="text;html=1;align=center;verticalAlign=middle;resizable=0;points=[];autosize=1;strokeColor=none;fillColor=none;fontSize=14;" vertex="1" parent="1">
          <mxGeometry x="390" y="440" width="30" height="20" as="geometry" />
        </mxCell>
        <mxCell id="m09n2iZaMvHmgW29_Yog-12" value="" style="endArrow=classic;html=1;rounded=0;" edge="1" parent="1">
          <mxGeometry width="50" height="50" relative="1" as="geometry">
            <mxPoint x="560" y="440" as="sourcePoint" />
            <mxPoint x="560" y="360" as="targetPoint" />
          </mxGeometry>
        </mxCell>
        <mxCell id="m09n2iZaMvHmgW29_Yog-13" value="" style="endArrow=classic;html=1;rounded=0;" edge="1" parent="1">
          <mxGeometry width="50" height="50" relative="1" as="geometry">
            <mxPoint x="560" y="440" as="sourcePoint" />
            <mxPoint x="640" y="440" as="targetPoint" />
          </mxGeometry>
        </mxCell>
        <mxCell id="m09n2iZaMvHmgW29_Yog-14" value="" style="endArrow=classic;html=1;rounded=0;" edge="1" parent="1">
          <mxGeometry width="50" height="50" relative="1" as="geometry">
            <mxPoint x="560" y="440" as="sourcePoint" />
            <mxPoint x="510" y="490" as="targetPoint" />
          </mxGeometry>
        </mxCell>
        <mxCell id="m09n2iZaMvHmgW29_Yog-15" value="&lt;font style=&quot;font-size: 14px&quot;&gt;X&lt;/font&gt;" style="text;html=1;align=center;verticalAlign=middle;resizable=0;points=[];autosize=1;strokeColor=none;fillColor=none;" vertex="1" parent="1">
          <mxGeometry x="565" y="360" width="20" height="20" as="geometry" />
        </mxCell>
        <mxCell id="m09n2iZaMvHmgW29_Yog-16" value="&lt;font style=&quot;font-size: 14px&quot;&gt;Z&lt;/font&gt;" style="text;html=1;align=center;verticalAlign=middle;resizable=0;points=[];autosize=1;strokeColor=none;fillColor=none;" vertex="1" parent="1">
          <mxGeometry x="640" y="430" width="20" height="20" as="geometry" />
        </mxCell>
        <mxCell id="m09n2iZaMvHmgW29_Yog-17" value="&lt;font style=&quot;font-size: 14px&quot;&gt;Y&lt;/font&gt;" style="text;html=1;align=center;verticalAlign=middle;resizable=0;points=[];autosize=1;strokeColor=none;fillColor=none;" vertex="1" parent="1">
          <mxGeometry x="520" y="480" width="20" height="20" as="geometry" />
        </mxCell>
        <mxCell id="m09n2iZaMvHmgW29_Yog-19" value="O" style="text;html=1;align=center;verticalAlign=middle;resizable=0;points=[];autosize=1;strokeColor=none;fillColor=none;fontSize=14;" vertex="1" parent="1">
          <mxGeometry x="550" y="440" width="30" height="20" as="geometry" />
        </mxCell>
        <mxCell id="m09n2iZaMvHmgW29_Yog-20" value="" style="endArrow=classic;html=1;rounded=0;" edge="1" parent="1">
          <mxGeometry width="50" height="50" relative="1" as="geometry">
            <mxPoint x="80" y="440" as="sourcePoint" />
            <mxPoint x="80" y="360" as="targetPoint" />
          </mxGeometry>
        </mxCell>
        <mxCell id="m09n2iZaMvHmgW29_Yog-21" value="" style="endArrow=classic;html=1;rounded=0;" edge="1" parent="1">
          <mxGeometry width="50" height="50" relative="1" as="geometry">
            <mxPoint x="80" y="440" as="sourcePoint" />
            <mxPoint x="160" y="440" as="targetPoint" />
          </mxGeometry>
        </mxCell>
        <mxCell id="m09n2iZaMvHmgW29_Yog-22" value="" style="endArrow=classic;html=1;rounded=0;" edge="1" parent="1">
          <mxGeometry width="50" height="50" relative="1" as="geometry">
            <mxPoint x="80" y="440" as="sourcePoint" />
            <mxPoint x="30" y="490" as="targetPoint" />
          </mxGeometry>
        </mxCell>
        <mxCell id="m09n2iZaMvHmgW29_Yog-23" value="&lt;font style=&quot;font-size: 14px&quot;&gt;Z&lt;/font&gt;" style="text;html=1;align=center;verticalAlign=middle;resizable=0;points=[];autosize=1;strokeColor=none;fillColor=none;" vertex="1" parent="1">
          <mxGeometry x="85" y="360" width="20" height="20" as="geometry" />
        </mxCell>
        <mxCell id="m09n2iZaMvHmgW29_Yog-24" value="&lt;font style=&quot;font-size: 14px&quot;&gt;X&lt;/font&gt;" style="text;html=1;align=center;verticalAlign=middle;resizable=0;points=[];autosize=1;strokeColor=none;fillColor=none;" vertex="1" parent="1">
          <mxGeometry x="40" y="480" width="20" height="20" as="geometry" />
        </mxCell>
        <mxCell id="m09n2iZaMvHmgW29_Yog-25" value="" style="endArrow=classic;html=1;fontSize=14;curved=1;" edge="1" parent="1">
          <mxGeometry width="50" height="50" relative="1" as="geometry">
            <mxPoint x="75" y="420" as="sourcePoint" />
            <mxPoint x="65" y="420" as="targetPoint" />
            <Array as="points">
              <mxPoint x="90" y="420" />
              <mxPoint x="100" y="410" />
              <mxPoint x="85" y="390" />
              <mxPoint x="65" y="399" />
            </Array>
          </mxGeometry>
        </mxCell>
        <mxCell id="m09n2iZaMvHmgW29_Yog-26" value="O" style="text;html=1;align=center;verticalAlign=middle;resizable=0;points=[];autosize=1;strokeColor=none;fillColor=none;fontSize=14;" vertex="1" parent="1">
          <mxGeometry x="70" y="440" width="30" height="20" as="geometry" />
        </mxCell>
        <mxCell id="m09n2iZaMvHmgW29_Yog-27" value="" style="endArrow=classic;html=1;rounded=0;" edge="1" parent="1">
          <mxGeometry width="50" height="50" relative="1" as="geometry">
            <mxPoint x="240" y="441" as="sourcePoint" />
            <mxPoint x="240" y="361" as="targetPoint" />
          </mxGeometry>
        </mxCell>
        <mxCell id="m09n2iZaMvHmgW29_Yog-28" value="" style="endArrow=classic;html=1;rounded=0;" edge="1" parent="1">
          <mxGeometry width="50" height="50" relative="1" as="geometry">
            <mxPoint x="240" y="441" as="sourcePoint" />
            <mxPoint x="320" y="441" as="targetPoint" />
          </mxGeometry>
        </mxCell>
        <mxCell id="m09n2iZaMvHmgW29_Yog-29" value="" style="endArrow=classic;html=1;rounded=0;" edge="1" parent="1">
          <mxGeometry width="50" height="50" relative="1" as="geometry">
            <mxPoint x="240" y="441" as="sourcePoint" />
            <mxPoint x="190" y="491" as="targetPoint" />
          </mxGeometry>
        </mxCell>
        <mxCell id="m09n2iZaMvHmgW29_Yog-30" value="&lt;font style=&quot;font-size: 14px&quot;&gt;Z&lt;/font&gt;" style="text;html=1;align=center;verticalAlign=middle;resizable=0;points=[];autosize=1;strokeColor=none;fillColor=none;" vertex="1" parent="1">
          <mxGeometry x="245" y="361" width="20" height="20" as="geometry" />
        </mxCell>
        <mxCell id="m09n2iZaMvHmgW29_Yog-31" value="&lt;font style=&quot;font-size: 14px&quot;&gt;X&lt;/font&gt;" style="text;html=1;align=center;verticalAlign=middle;resizable=0;points=[];autosize=1;strokeColor=none;fillColor=none;" vertex="1" parent="1">
          <mxGeometry x="200" y="481" width="20" height="20" as="geometry" />
        </mxCell>
        <mxCell id="m09n2iZaMvHmgW29_Yog-33" value="O" style="text;html=1;align=center;verticalAlign=middle;resizable=0;points=[];autosize=1;strokeColor=none;fillColor=none;fontSize=14;" vertex="1" parent="1">
          <mxGeometry x="230" y="441" width="30" height="20" as="geometry" />
        </mxCell>
        <mxCell id="m09n2iZaMvHmgW29_Yog-34" value="" style="endArrow=classic;html=1;rounded=0;" edge="1" parent="1">
          <mxGeometry width="50" height="50" relative="1" as="geometry">
            <mxPoint x="720" y="440" as="sourcePoint" />
            <mxPoint x="720" y="360" as="targetPoint" />
          </mxGeometry>
        </mxCell>
        <mxCell id="m09n2iZaMvHmgW29_Yog-35" value="" style="endArrow=classic;html=1;rounded=0;" edge="1" parent="1">
          <mxGeometry width="50" height="50" relative="1" as="geometry">
            <mxPoint x="720" y="440" as="sourcePoint" />
            <mxPoint x="800" y="440" as="targetPoint" />
          </mxGeometry>
        </mxCell>
        <mxCell id="m09n2iZaMvHmgW29_Yog-36" value="" style="endArrow=classic;html=1;rounded=0;" edge="1" parent="1">
          <mxGeometry width="50" height="50" relative="1" as="geometry">
            <mxPoint x="720" y="440" as="sourcePoint" />
            <mxPoint x="670" y="490" as="targetPoint" />
          </mxGeometry>
        </mxCell>
        <mxCell id="m09n2iZaMvHmgW29_Yog-37" value="&lt;font style=&quot;font-size: 14px&quot;&gt;Y&lt;/font&gt;" style="text;html=1;align=center;verticalAlign=middle;resizable=0;points=[];autosize=1;strokeColor=none;fillColor=none;" vertex="1" parent="1">
          <mxGeometry x="725" y="360" width="20" height="20" as="geometry" />
        </mxCell>
        <mxCell id="m09n2iZaMvHmgW29_Yog-38" value="&lt;font style=&quot;font-size: 14px&quot;&gt;X&lt;/font&gt;" style="text;html=1;align=center;verticalAlign=middle;resizable=0;points=[];autosize=1;strokeColor=none;fillColor=none;" vertex="1" parent="1">
          <mxGeometry x="800" y="430" width="20" height="20" as="geometry" />
        </mxCell>
        <mxCell id="m09n2iZaMvHmgW29_Yog-39" value="&lt;font style=&quot;font-size: 14px&quot;&gt;Z&lt;/font&gt;" style="text;html=1;align=center;verticalAlign=middle;resizable=0;points=[];autosize=1;strokeColor=none;fillColor=none;" vertex="1" parent="1">
          <mxGeometry x="680" y="480" width="20" height="20" as="geometry" />
        </mxCell>
        <mxCell id="m09n2iZaMvHmgW29_Yog-40" value="" style="endArrow=classic;html=1;fontSize=14;curved=1;" edge="1" parent="1">
          <mxGeometry width="50" height="50" relative="1" as="geometry">
            <mxPoint x="715" y="420" as="sourcePoint" />
            <mxPoint x="705" y="420" as="targetPoint" />
            <Array as="points">
              <mxPoint x="730" y="420" />
              <mxPoint x="740" y="410" />
              <mxPoint x="725" y="390" />
              <mxPoint x="705" y="399" />
            </Array>
          </mxGeometry>
        </mxCell>
        <mxCell id="m09n2iZaMvHmgW29_Yog-41" value="O" style="text;html=1;align=center;verticalAlign=middle;resizable=0;points=[];autosize=1;strokeColor=none;fillColor=none;fontSize=14;" vertex="1" parent="1">
          <mxGeometry x="710" y="440" width="30" height="20" as="geometry" />
        </mxCell>
        <mxCell id="m09n2iZaMvHmgW29_Yog-42" value="" style="endArrow=classic;html=1;rounded=0;" edge="1" parent="1">
          <mxGeometry width="50" height="50" relative="1" as="geometry">
            <mxPoint x="879" y="438" as="sourcePoint" />
            <mxPoint x="879" y="358" as="targetPoint" />
          </mxGeometry>
        </mxCell>
        <mxCell id="m09n2iZaMvHmgW29_Yog-43" value="" style="endArrow=classic;html=1;rounded=0;" edge="1" parent="1">
          <mxGeometry width="50" height="50" relative="1" as="geometry">
            <mxPoint x="879" y="438" as="sourcePoint" />
            <mxPoint x="959" y="438" as="targetPoint" />
          </mxGeometry>
        </mxCell>
        <mxCell id="m09n2iZaMvHmgW29_Yog-44" value="" style="endArrow=classic;html=1;rounded=0;" edge="1" parent="1">
          <mxGeometry width="50" height="50" relative="1" as="geometry">
            <mxPoint x="879" y="438" as="sourcePoint" />
            <mxPoint x="829" y="488" as="targetPoint" />
          </mxGeometry>
        </mxCell>
        <mxCell id="m09n2iZaMvHmgW29_Yog-45" value="&lt;font style=&quot;font-size: 14px&quot;&gt;Y&lt;/font&gt;" style="text;html=1;align=center;verticalAlign=middle;resizable=0;points=[];autosize=1;strokeColor=none;fillColor=none;" vertex="1" parent="1">
          <mxGeometry x="884" y="358" width="20" height="20" as="geometry" />
        </mxCell>
        <mxCell id="m09n2iZaMvHmgW29_Yog-46" value="&lt;font style=&quot;font-size: 14px&quot;&gt;X&lt;/font&gt;" style="text;html=1;align=center;verticalAlign=middle;resizable=0;points=[];autosize=1;strokeColor=none;fillColor=none;" vertex="1" parent="1">
          <mxGeometry x="959" y="428" width="20" height="20" as="geometry" />
        </mxCell>
        <mxCell id="m09n2iZaMvHmgW29_Yog-47" value="&lt;font style=&quot;font-size: 14px&quot;&gt;Z&lt;/font&gt;" style="text;html=1;align=center;verticalAlign=middle;resizable=0;points=[];autosize=1;strokeColor=none;fillColor=none;" vertex="1" parent="1">
          <mxGeometry x="839" y="479" width="20" height="20" as="geometry" />
        </mxCell>
        <mxCell id="m09n2iZaMvHmgW29_Yog-49" value="O" style="text;html=1;align=center;verticalAlign=middle;resizable=0;points=[];autosize=1;strokeColor=none;fillColor=none;fontSize=14;" vertex="1" parent="1">
          <mxGeometry x="869" y="438" width="30" height="20" as="geometry" />
        </mxCell>
        <mxCell id="m09n2iZaMvHmgW29_Yog-54" value="" style="curved=1;endArrow=classic;html=1;fontSize=14;" edge="1" parent="1">
          <mxGeometry width="50" height="50" relative="1" as="geometry">
            <mxPoint x="237" y="418" as="sourcePoint" />
            <mxPoint x="242" y="418" as="targetPoint" />
            <Array as="points">
              <mxPoint x="214" y="398" />
              <mxPoint x="257" y="395" />
              <mxPoint x="257" y="405" />
            </Array>
          </mxGeometry>
        </mxCell>
        <mxCell id="m09n2iZaMvHmgW29_Yog-55" value="" style="curved=1;endArrow=classic;html=1;fontSize=14;" edge="1" parent="1">
          <mxGeometry width="50" height="50" relative="1" as="geometry">
            <mxPoint x="557" y="417" as="sourcePoint" />
            <mxPoint x="562" y="417" as="targetPoint" />
            <Array as="points">
              <mxPoint x="534" y="397" />
              <mxPoint x="577" y="394" />
              <mxPoint x="577" y="404" />
            </Array>
          </mxGeometry>
        </mxCell>
        <mxCell id="m09n2iZaMvHmgW29_Yog-56" value="" style="curved=1;endArrow=classic;html=1;fontSize=14;" edge="1" parent="1">
          <mxGeometry width="50" height="50" relative="1" as="geometry">
            <mxPoint x="876" y="417" as="sourcePoint" />
            <mxPoint x="881" y="417" as="targetPoint" />
            <Array as="points">
              <mxPoint x="853" y="397" />
              <mxPoint x="896" y="394" />
              <mxPoint x="896" y="404" />
            </Array>
          </mxGeometry>
        </mxCell>
        <mxCell id="m09n2iZaMvHmgW29_Yog-57" value="[0&amp;nbsp; 0&amp;nbsp; 360]" style="text;html=1;align=center;verticalAlign=middle;resizable=0;points=[];autosize=1;strokeColor=none;fillColor=none;fontSize=14;" vertex="1" parent="1">
          <mxGeometry x="40" y="510" width="80" height="20" as="geometry" />
        </mxCell>
        <mxCell id="m09n2iZaMvHmgW29_Yog-58" value="[0&amp;nbsp; 0&amp;nbsp; -360]" style="text;html=1;align=center;verticalAlign=middle;resizable=0;points=[];autosize=1;strokeColor=none;fillColor=none;fontSize=14;" vertex="1" parent="1">
          <mxGeometry x="200" y="510" width="80" height="20" as="geometry" />
        </mxCell>
        <mxCell id="m09n2iZaMvHmgW29_Yog-59" value="[360&amp;nbsp; 0&amp;nbsp; 0]" style="text;html=1;align=center;verticalAlign=middle;resizable=0;points=[];autosize=1;strokeColor=none;fillColor=none;fontSize=14;" vertex="1" parent="1">
          <mxGeometry x="360" y="510" width="80" height="20" as="geometry" />
        </mxCell>
        <mxCell id="m09n2iZaMvHmgW29_Yog-60" value="[-360&amp;nbsp; 0&amp;nbsp; 0]" style="text;html=1;align=center;verticalAlign=middle;resizable=0;points=[];autosize=1;strokeColor=none;fillColor=none;fontSize=14;" vertex="1" parent="1">
          <mxGeometry x="520" y="510" width="80" height="20" as="geometry" />
        </mxCell>
        <mxCell id="m09n2iZaMvHmgW29_Yog-61" value="[0&amp;nbsp; 360&amp;nbsp; 0]" style="text;html=1;align=center;verticalAlign=middle;resizable=0;points=[];autosize=1;strokeColor=none;fillColor=none;fontSize=14;" vertex="1" parent="1">
          <mxGeometry x="680" y="510" width="80" height="20" as="geometry" />
        </mxCell>
        <mxCell id="m09n2iZaMvHmgW29_Yog-62" value="[0&amp;nbsp; -360&amp;nbsp; 0]" style="text;html=1;align=center;verticalAlign=middle;resizable=0;points=[];autosize=1;strokeColor=none;fillColor=none;fontSize=14;" vertex="1" parent="1">
          <mxGeometry x="839" y="510" width="80" height="20" as="geometry" />
        </mxCell>
        <mxCell id="m09n2iZaMvHmgW29_Yog-63" value="Y" style="text;html=1;align=center;verticalAlign=middle;resizable=0;points=[];autosize=1;strokeColor=none;fillColor=none;fontSize=14;" vertex="1" parent="1">
          <mxGeometry x="160" y="430" width="20" height="20" as="geometry" />
        </mxCell>
        <mxCell id="m09n2iZaMvHmgW29_Yog-64" value="Y" style="text;html=1;align=center;verticalAlign=middle;resizable=0;points=[];autosize=1;strokeColor=none;fillColor=none;fontSize=14;" vertex="1" parent="1">
          <mxGeometry x="320" y="430" width="20" height="20" as="geometry" />
        </mxCell>
      </root>
    </mxGraphModel>
  </diagram>
</mxfile>
